# xmcd
#
# Track frame offsets:
#	150
#	16608
#	40731
#	59062
#	80236
#	98651
#	122970
#	137322
#	155468
#	173205
#	199948
#	216424
#	232519
#	253036
#	270921
#	300249
#	323607
#
# Disc length: 4622 seconds
# Revision: 2
# Processed by: cddbd v1.5.2PL0 Copyright (c) Steve Scherf et al.
# Submitted via: dBpowerAMP V12.0
#
DISCID=d8120c11
DTITLE=Jimmy Morello - West Coast Redemption: The Jimmy Morello Story...So Far
DYEAR=2001
DGENRE=Blues
TTITLE0=Too Much Crime in the City
TTITLE1=Silver Spoon
TTITLE2=I Got to Know
TTITLE3=You Are Gonna Wish I Had Stayed
TTITLE4=Hey Brother
TTITLE5=I Ain't Doing Nothing Wrong
TTITLE6=Back to New Orleans
TTITLE7=You Can't Do This to Me
TTITLE8=They Call Me Sweet Betty
TTITLE9=I Read Your Letter
TTITLE10=Put the Blame on Me
TTITLE11=Working Stiff
TTITLE12=Texas Home
TTITLE13=Got You on My Mind
TTITLE14=Your Love Is Killing Me
TTITLE15=Sugar and Honey
TTITLE16=Two Timin' Man
EXTD=
EXTT0=
EXTT1=
EXTT2=
EXTT3=
EXTT4=
EXTT5=
EXTT6=
EXTT7=
EXTT8=
EXTT9=
EXTT10=
EXTT11=
EXTT12=
EXTT13=
EXTT14=
EXTT15=
EXTT16=
PLAYORDER=
